<svg width="48" height="48" viewBox="0 0 48 48" fill="none" xmlns="http://www.w3.org/2000/svg">
<path d="M0 24C0 10.7452 10.7452 0 24 0C37.2548 0 48 10.7452 48 24C48 37.2548 37.2548 48 24 48C10.7452 48 0 37.2548 0 24Z" fill="#E5ECFF"/>
<path d="M34 22V27C34 32 32 34 27 34H21C16 34 14 32 14 27V21C14 16 16 14 21 14H26" stroke="#1830FF" stroke-width="1.5" stroke-linecap="round" stroke-linejoin="round"/>
<path d="M34 22H30C27 22 26 21 26 18V14L34 22Z" stroke="#1830FF" stroke-width="1.5" stroke-linecap="round" stroke-linejoin="round"/>
<path d="M19 25H25" stroke="#1830FF" stroke-width="1.5" stroke-linecap="round" stroke-linejoin="round"/>
<path d="M19 29H23" stroke="#1830FF" stroke-width="1.5" stroke-linecap="round" stroke-linejoin="round"/>
</svg>
