<svg width="56" height="56" viewBox="0 0 56 56" fill="none" xmlns="http://www.w3.org/2000/svg">
<path d="M18.6666 51.3326H37.3333C46.7133 51.3326 48.3933 47.5759 48.8833 43.0026L50.6333 24.3359C51.2633 18.6426 49.6299 13.9993 39.6666 13.9993H16.3333C6.36992 13.9993 4.73659 18.6426 5.36659 24.3359L7.11659 43.0026C7.60659 47.5759 9.28659 51.3326 18.6666 51.3326Z" stroke="#1830FF" stroke-width="3" stroke-miterlimit="10" stroke-linecap="round" stroke-linejoin="round"/>
<path d="M18.6665 13.9993V12.1327C18.6665 8.00268 18.6665 4.66602 26.1332 4.66602H29.8665C37.3332 4.66602 37.3332 8.00268 37.3332 12.1327V13.9993" stroke="#1830FF" stroke-width="3" stroke-miterlimit="10" stroke-linecap="round" stroke-linejoin="round"/>
<path d="M32.6663 30.3326V32.6659C32.6663 32.6893 32.6663 32.6893 32.6663 32.7126C32.6663 35.2559 32.643 37.3326 27.9997 37.3326C23.3797 37.3326 23.333 35.2793 23.333 32.7359V30.3326C23.333 27.9993 23.333 27.9993 25.6663 27.9993H30.333C32.6663 27.9993 32.6663 27.9993 32.6663 30.3326Z" stroke="#1830FF" stroke-width="3" stroke-miterlimit="10" stroke-linecap="round" stroke-linejoin="round"/>
<path d="M50.5165 25.666C45.1265 29.586 38.9665 31.9193 32.6665 32.7127" stroke="#1830FF" stroke-width="3" stroke-miterlimit="10" stroke-linecap="round" stroke-linejoin="round"/>
<path d="M6.11328 26.2959C11.3633 29.8892 17.2899 32.0592 23.3333 32.7359" stroke="#1830FF" stroke-width="3" stroke-miterlimit="10" stroke-linecap="round" stroke-linejoin="round"/>
</svg>
