<svg width="56" height="56" viewBox="0 0 56 56" fill="none" xmlns="http://www.w3.org/2000/svg">
<path d="M20.9998 51.3327H34.9998C46.6665 51.3327 51.3332 46.666 51.3332 34.9993V20.9993C51.3332 9.33268 46.6665 4.66602 34.9998 4.66602H20.9998C9.33317 4.66602 4.6665 9.33268 4.6665 20.9993V34.9993C4.6665 46.666 9.33317 51.3327 20.9998 51.3327Z" stroke="#1830FF" stroke-width="3" stroke-linecap="round" stroke-linejoin="round"/>
<path d="M4.6665 30.3327H13.4398C15.2132 30.3327 16.8232 31.336 17.6165 32.9227L19.6932 37.0993C20.9998 39.666 23.3332 39.666 23.8932 39.666H32.1298C33.9032 39.666 35.5132 38.6627 36.3065 37.076L38.3832 32.8993C39.1765 31.3127 40.7865 30.3093 42.5598 30.3093H51.2865" stroke="#1830FF" stroke-width="3" stroke-linecap="round" stroke-linejoin="round"/>
</svg>
