<svg width="48" height="50" viewBox="0 0 48 50" fill="none" xmlns="http://www.w3.org/2000/svg">
<path d="M17.5683 22.3627C17.335 22.3393 17.055 22.3393 16.7983 22.3627C11.245 22.176 6.83496 17.626 6.83496 12.026C6.83496 6.30935 11.455 1.66602 17.195 1.66602C22.9116 1.66602 27.555 6.30935 27.555 12.026C27.5316 17.626 23.1216 22.176 17.5683 22.3627Z" stroke="#1830FF" stroke-width="3" stroke-linecap="round" stroke-linejoin="round"/>
<path d="M34.485 6.33276C39.0116 6.33276 42.6516 9.9961 42.6516 14.4994C42.6516 18.9094 39.1516 22.5028 34.7883 22.6661C34.6016 22.6428 34.3916 22.6428 34.1816 22.6661" stroke="#1830FF" stroke-width="3" stroke-linecap="round" stroke-linejoin="round"/>
<path d="M5.9015 30.9728C0.254837 34.7528 0.254837 40.9128 5.9015 44.6694C12.3182 48.9628 22.8415 48.9628 29.2582 44.6694C34.9048 40.8894 34.9048 34.7294 29.2582 30.9728C22.8648 26.7028 12.3415 26.7028 5.9015 30.9728Z" stroke="#1830FF" stroke-width="3" stroke-linecap="round" stroke-linejoin="round"/>
<path d="M38.9883 43.666C40.6683 43.316 42.2549 42.6393 43.5616 41.636C47.2016 38.906 47.2016 34.4027 43.5616 31.6727C42.2783 30.6927 40.7149 30.0393 39.0583 29.666" stroke="#1830FF" stroke-width="3" stroke-linecap="round" stroke-linejoin="round"/>
</svg>
