<svg width="56" height="56" viewBox="0 0 56 56" fill="none" xmlns="http://www.w3.org/2000/svg">
<path d="M0 27.9993C0 12.5353 12.536 -0.000732422 28 -0.000732422C43.464 -0.000732422 56 12.5353 56 27.9993C56 43.4632 43.464 55.9993 28 55.9993C12.536 55.9993 0 43.4632 0 27.9993Z" fill="#3F5EFF"/>
<path d="M36.7656 35.2629H34.0156V39.9973H29.2969V35.2629H19.5469V31.9036L29.5625 17.1536H34.0156V31.5129H36.7656V35.2629ZM29.2969 31.5129V27.6379C29.2969 26.9921 29.3229 26.0546 29.375 24.8254C29.4271 23.5963 29.4688 22.8827 29.5 22.6848H29.375C28.9896 23.539 28.526 24.3723 27.9844 25.1848L23.7969 31.5129H29.2969Z" fill="white"/>
</svg>
