<svg width="56" height="56" viewBox="0 0 56 56" fill="none" xmlns="http://www.w3.org/2000/svg">
<path d="M0 27.9993C0 12.5353 12.536 -0.000732422 28 -0.000732422C43.464 -0.000732422 56 12.5353 56 27.9993C56 43.4632 43.464 55.9993 28 55.9993C12.536 55.9993 0 43.4632 0 27.9993Z" fill="#3F5EFF"/>
<path d="M36.25 39.9973H20.2812V36.6379L26.0156 30.8411C27.7135 29.1015 28.8229 27.8984 29.3438 27.2317C29.8646 26.5546 30.2396 25.9296 30.4688 25.3567C30.6979 24.7838 30.8125 24.19 30.8125 23.5754C30.8125 22.6588 30.5573 21.9765 30.0469 21.5286C29.5469 21.0806 28.875 20.8567 28.0312 20.8567C27.1458 20.8567 26.2865 21.0598 25.4531 21.4661C24.6198 21.8723 23.75 22.4504 22.8438 23.2004L20.2188 20.0911C21.3438 19.1327 22.276 18.4556 23.0156 18.0598C23.7552 17.664 24.5625 17.3619 25.4375 17.1536C26.3125 16.9348 27.2917 16.8254 28.375 16.8254C29.8021 16.8254 31.0625 17.0859 32.1562 17.6067C33.25 18.1275 34.099 18.8567 34.7031 19.7942C35.3073 20.7317 35.6094 21.8046 35.6094 23.0129C35.6094 24.065 35.4219 25.0546 35.0469 25.9817C34.6823 26.8984 34.1094 27.8411 33.3281 28.8098C32.5573 29.7786 31.1927 31.1588 29.2344 32.9504L26.2969 35.7161V35.9348H36.25V39.9973Z" fill="white"/>
</svg>
