<svg width="56" height="56" viewBox="0 0 56 56" fill="none" xmlns="http://www.w3.org/2000/svg">
<path d="M0 27.9993C0 12.5353 12.536 -0.000732422 28 -0.000732422C43.464 -0.000732422 56 12.5353 56 27.9993C56 43.4632 43.464 55.9993 28 55.9993C12.536 55.9993 0 43.4632 0 27.9993Z" fill="#3F5EFF"/>
<path d="M35.3594 22.2629C35.3594 23.69 34.9271 24.9036 34.0625 25.9036C33.1979 26.9036 31.9844 27.5911 30.4219 27.9661V28.0598C32.2656 28.289 33.6615 28.8515 34.6094 29.7473C35.5573 30.6327 36.0312 31.8306 36.0312 33.3411C36.0312 35.539 35.2344 37.2525 33.6406 38.4817C32.0469 39.7004 29.7708 40.3098 26.8125 40.3098C24.3333 40.3098 22.1354 39.8984 20.2188 39.0754V34.9661C21.1042 35.414 22.0781 35.7786 23.1406 36.0598C24.2031 36.3411 25.2552 36.4817 26.2969 36.4817C27.8906 36.4817 29.0677 36.2109 29.8281 35.6692C30.5885 35.1275 30.9688 34.2577 30.9688 33.0598C30.9688 31.9869 30.5312 31.2265 29.6562 30.7786C28.7812 30.3306 27.3854 30.1067 25.4688 30.1067H23.7344V26.4036H25.5C27.2708 26.4036 28.5625 26.1744 29.375 25.7161C30.1979 25.2473 30.6094 24.4504 30.6094 23.3254C30.6094 21.5963 29.526 20.7317 27.3594 20.7317C26.6094 20.7317 25.8438 20.8567 25.0625 21.1067C24.2917 21.3567 23.4323 21.789 22.4844 22.4036L20.25 19.0754C22.3333 17.5754 24.8177 16.8254 27.7031 16.8254C30.0677 16.8254 31.9323 17.3046 33.2969 18.2629C34.6719 19.2213 35.3594 20.5546 35.3594 22.2629Z" fill="white"/>
</svg>
